<svg xmlns="http://www.w3.org/2000/svg" aria-hidden="true" style="position:absolute;width:0;height:0;overflow:hidden">
<defs>
<symbol id="envelope" viewBox="0 0 43 32"><path d="M38.667 0H4C1.794 0 0 1.794 0 4v24c0 2.206 1.794 4 4 4h34.667c2.206 0 4-1.794 4-4V4c0-2.206-1.794-4-4-4zm0 2.667c.181 0 .353.038.511.103L21.334 18.236 3.49 2.77a1.32 1.32 0 0 1 .511-.103h34.667zm0 26.666H4A1.334 1.334 0 0 1 2.667 28V5.587L20.46 21.008a1.335 1.335 0 0 0 1.748 0L40.001 5.587V28c0 .736-.598 1.333-1.333 1.333z"/></symbol>
<symbol id="smartphone" viewBox="0 0 20 32"><path d="M17 0H3C1.346 0 0 1.346 0 3v26c0 1.654 1.346 3 3 3h14c1.654 0 3-1.346 3-3V3c0-1.654-1.346-3-3-3zM3 2h14a1 1 0 0 1 1 1v21H2V3a1 1 0 0 1 1-1zm14 28H3a1 1 0 0 1-1-1v-3h16v3a1 1 0 0 1-1 1z"/><path d="M4.707 27.478c.391.365.391.956 0 1.321s-1.024.365-1.414 0c-.391-.365-.391-.956 0-1.321s1.024-.365 1.414 0z"/></symbol>
<symbol id="close_40" viewBox="0 0 32 32"><path d="M23.733 10.304 22.229 8.8l-5.963 5.963L10.303 8.8l-1.504 1.504 5.963 5.963-5.963 5.963 1.504 1.504 5.963-5.963 5.963 5.963 1.504-1.504-5.963-5.963 5.963-5.963z"/></symbol>
<symbol id="menu_40" viewBox="0 0 32 32"><path d="M6.4 11.733V9.6h19.2v2.133H6.4zm0 5.334h19.2v-2.133H6.4v2.133zm0 5.333h19.2v-2.133H6.4V22.4z"/></symbol>
<symbol id="moon" viewBox="0 0 32 32"><path d="M27.6558 17.3933C26.7523 17.6333 25.8214 17.7547 24.8865 17.7546C22.0398 17.7546 19.3665 16.648 17.3585 14.64C16.0399 13.3138 15.0919 11.6651 14.6091 9.85837C14.1262 8.05161 14.1253 6.14985 14.6065 4.34264C14.6666 4.11669 14.6662 3.8789 14.6054 3.65314C14.5446 3.42738 14.4255 3.22157 14.26 3.05638C14.0945 2.89119 13.8885 2.77241 13.6627 2.71196C13.4368 2.65151 13.199 2.65152 12.9732 2.71198C10.7107 3.31489 8.64659 4.50214 6.98784 6.15464C1.79051 11.352 1.79051 19.812 6.98784 25.012C8.22321 26.2542 9.69269 27.2391 11.3112 27.9097C12.9298 28.5803 14.6652 28.9232 16.4172 28.9186C18.1687 28.9236 19.9037 28.5809 21.5218 27.9105C23.14 27.2402 24.609 26.2554 25.8438 25.0133C27.4976 23.3542 28.6854 21.289 29.2878 19.0253C29.3477 18.7994 29.3472 18.5618 29.2864 18.3362C29.2256 18.1106 29.1067 17.9049 28.9415 17.7397C28.7762 17.5745 28.5705 17.4555 28.3449 17.3947C28.1193 17.334 27.8817 17.3335 27.6558 17.3933ZM23.9598 23.128C22.9718 24.1214 21.7965 24.9091 20.5021 25.4453C19.2076 25.9815 17.8196 26.2557 16.4185 26.252C15.0169 26.2555 13.6285 25.981 12.3336 25.4446C11.0387 24.9081 9.86302 24.1203 8.87451 23.1266C4.71718 18.968 4.71718 12.2 8.87451 8.04131C9.67785 7.23887 10.6053 6.57119 11.6212 6.06398C11.4725 7.98272 11.7398 9.91095 12.4048 11.7169C13.0698 13.5228 14.1169 15.1639 15.4745 16.528C16.8356 17.8898 18.4762 18.9398 20.2829 19.6053C22.0896 20.2709 24.0193 20.5361 25.9385 20.3826C25.4285 21.3968 24.7607 22.3235 23.9598 23.128Z" fill="#0000ff"/></symbol>
<symbol id="sun" viewBox="0 0 32 32"><path id="Vector" d="M9.32407 16.0001C9.32407 19.6814 12.3187 22.6761 16.0001 22.6761C19.6814 22.6761 22.6761 19.6814 22.6761 16.0001C22.6761 12.3188 19.6814 9.32409 16.0001 9.32409C12.3187 9.32409 9.32407 12.3188 9.32407 16.0001ZM16.0001 11.9908C18.2107 11.9908 20.0094 13.7894 20.0094 16.0001C20.0094 18.2108 18.2107 20.0094 16.0001 20.0094C13.7894 20.0094 11.9907 18.2108 11.9907 16.0001C11.9907 13.7894 13.7894 11.9908 16.0001 11.9908ZM14.6641 25.3334H17.3307V29.3334H14.6641V25.3334ZM14.6641 2.66675H17.3307V6.66675H14.6641V2.66675ZM2.66406 14.6668H6.66407V17.3334H2.66406V14.6668ZM25.3307 14.6668H29.3307V17.3334H25.3307V14.6668ZM5.6254 24.4841L8.45207 21.6548L10.3387 23.5401L7.51207 26.3694L5.6254 24.4841ZM21.6534 8.45875L24.4827 5.62942L26.3681 7.51475L23.5387 10.3441L21.6534 8.45875ZM8.45607 10.3454L5.62673 7.51608L7.5134 5.63075L10.3401 8.46008L8.45607 10.3454ZM26.3681 24.4854L24.4827 26.3708L21.6534 23.5414L23.5387 21.6561L26.3681 24.4854Z" fill="#ff0000"/></symbol>
</defs>
</svg>